<svg width="94" height="30" viewBox="0 0 94 30" fill="none" xmlns="http://www.w3.org/2000/svg">
<g id="Frame 1">
<g id="Group 415">
<path id="Vector" d="M40.2385 4.28895L38.8885 5.64906C35.2428 3.31971 31.0434 2.01902 26.7285 1.88275C22.4137 1.74649 18.1416 2.77964 14.3582 4.87437C10.5749 6.9691 7.41894 10.0486 5.21984 13.7915C3.02074 17.5343 1.8591 21.8033 1.85617 26.1528H0C0.00526323 21.433 1.27672 16.8024 3.67984 12.7509C6.08295 8.6995 9.52836 5.37788 13.6515 3.13755C17.7746 0.897209 22.4222 -0.178528 27.1024 0.0241579C31.7826 0.226843 36.3214 1.70041 40.2385 4.28895Z" fill="#48A928"/>
<path id="Vector_2" d="M35.1247 5.70315L33.7073 7.13127C30.6083 5.85082 27.2441 5.35872 23.9116 5.69839C20.5791 6.03806 17.3809 7.19906 14.5992 9.07891C11.8175 10.9588 9.53795 13.4996 7.96166 16.4773C6.38538 19.4549 5.56087 22.7778 5.56093 26.1525H3.70813C3.71062 22.4057 4.64414 18.7192 6.42354 15.4292C8.20295 12.1392 10.7716 9.35038 13.8952 7.3172C17.0188 5.28402 20.598 4.07114 24.3062 3.78921C28.0144 3.50728 31.7337 4.16527 35.1247 5.70315Z" fill="#48A928"/>
<path id="Vector_3" d="M29.357 7.77761L27.7202 9.42675C27.1385 9.36237 26.5538 9.33058 25.9686 9.33154C21.5407 9.33154 17.2942 11.1038 14.1632 14.2584C11.0322 17.4129 9.27321 21.6915 9.27321 26.1527H7.42041C7.42453 23.4112 8.02686 20.704 9.18476 18.223C10.3426 15.7421 12.0278 13.5479 14.1208 11.796C16.2138 10.0441 18.6636 8.77722 21.2965 8.08515C23.9295 7.39309 26.6813 7.29274 29.357 7.79121V7.77761Z" fill="#48A928"/>
<path id="Vector_4" d="M19.8469 26.1527V17.5533H16.7454V15.7002H24.9092V17.5704H21.7942V26.1697L19.8469 26.1527Z" fill="#101828"/>
<path id="Vector_5" d="M26.2277 26.1527V15.7002H28.0838V19.2739H28.1581C28.3045 19.1005 28.475 18.9493 28.6643 18.8251C29.2416 18.4652 29.9229 18.313 30.597 18.3933C31.2712 18.4736 31.8985 18.7816 32.3767 19.2671C32.6616 19.5801 32.8825 19.9466 33.0267 20.3457C33.1709 20.7448 33.2355 21.1686 33.217 21.5929V26.1527H31.3608V21.7323C31.3725 21.5131 31.3382 21.2938 31.2603 21.0888C31.1823 20.8838 31.0624 20.6977 30.9083 20.5424C30.7543 20.3872 30.5695 20.2664 30.366 20.1878C30.1626 20.1093 29.945 20.0748 29.7274 20.0866C29.5099 20.0753 29.2926 20.1102 29.0893 20.1889C28.8861 20.2677 28.7016 20.3885 28.5476 20.5436C28.3936 20.6987 28.2737 20.8847 28.1956 21.0895C28.1174 21.2942 28.0828 21.5132 28.094 21.7323V26.1527H26.2277Z" fill="#101828"/>
<path id="Vector_6" d="M35.0603 26.1522V18.5254H36.6195L36.768 19.2054H36.8422C36.9378 19.0762 37.0515 18.9617 37.1797 18.8654C37.4718 18.6447 37.8271 18.5254 38.1922 18.5254H39.6771V20.3207H38.3272C37.3845 20.3207 36.9142 20.7945 36.9165 21.7421V26.1624L35.0603 26.1522Z" fill="#101828"/>
<path id="Vector_7" d="M40.7053 17.3289V15.7002H42.7066V17.3459L40.7053 17.3289ZM40.7762 26.1527V18.5258H42.6324V26.1527H40.7762Z" fill="#101828"/>
<path id="Vector_8" d="M46.1931 26.1522L43.5945 18.5254H45.5249L47.3068 23.8332H47.6038L49.3857 18.5254H51.3162L48.7175 26.1522H46.1931Z" fill="#101828"/>
<path id="Vector_9" d="M57.1775 23.9083H59.1079C59.0432 24.1336 58.9454 24.348 58.8177 24.5441C58.642 24.8238 58.4384 25.0847 58.2102 25.3228C57.9076 25.635 57.5399 25.8754 57.1336 26.0266C56.6507 26.2152 56.1363 26.3087 55.6183 26.3021C55.106 26.3183 54.5958 26.228 54.1196 26.0367C53.6435 25.8454 53.2116 25.5572 52.8509 25.1902C52.1497 24.4093 51.7614 23.3938 51.7614 22.3407C51.7614 21.2877 52.1497 20.2722 52.8509 19.4913C53.2107 19.1228 53.6423 18.8335 54.1186 18.6415C54.595 18.4496 55.1056 18.3592 55.6183 18.376C56.1085 18.3668 56.5952 18.4596 57.0482 18.6486C57.5011 18.8376 57.9105 19.1187 58.2507 19.4743C58.6037 19.8306 58.8811 20.2555 59.0661 20.7231C59.2512 21.1907 59.34 21.6913 59.3273 22.1945C59.3273 22.2829 59.3273 22.4632 59.2834 22.7318L59.253 22.9426H53.617C53.6788 23.4435 53.9185 23.905 54.292 24.2415C54.6627 24.574 55.1459 24.7505 55.6419 24.7345C55.9973 24.7466 56.3487 24.6557 56.6544 24.4727C56.8792 24.3394 57.0609 24.1434 57.1775 23.9083ZM53.617 21.6675H57.4745C57.4061 21.1975 57.1909 20.7616 56.8603 20.423C56.6953 20.264 56.5004 20.14 56.2871 20.0583C56.0738 19.9765 55.8464 19.9386 55.6183 19.9469C55.1372 19.9278 54.6671 20.0958 54.3055 20.4162C53.9541 20.7523 53.7137 21.1891 53.617 21.6675Z" fill="#101828"/>
<path id="Vector_10" d="M59.9403 26.1527L63.8619 15.7002H65.6438L69.5789 26.1697H68.3167L67.365 23.463H62.1677L61.2025 26.1527H59.9403ZM62.6132 22.341H66.9195L64.9014 16.9549H64.6044L62.6132 22.341Z" fill="#101828"/>
<path id="Vector_11" d="M70.4678 26.7509H71.5781C71.6016 26.9647 71.6711 27.1707 71.7819 27.3545C71.8926 27.5384 72.0419 27.6956 72.2193 27.8152C72.6879 28.128 73.2444 28.2795 73.8055 28.247C74.3981 28.2762 74.9788 28.0726 75.4254 27.6792C75.6294 27.4835 75.7893 27.2458 75.8941 26.9824C75.9989 26.719 76.0462 26.4359 76.0329 26.1525V24.7923H75.9587C75.6663 25.1321 75.3027 25.4022 74.8942 25.5833C74.4857 25.7644 74.0424 25.852 73.5963 25.8396C73.1412 25.8523 72.6886 25.7679 72.2681 25.5921C71.8476 25.4163 71.4688 25.1531 71.1562 24.8195C70.5273 24.0858 70.1813 23.1487 70.1813 22.1792C70.1813 21.2098 70.5273 20.2726 71.1562 19.5389C71.4688 19.2054 71.8476 18.9421 72.2681 18.7663C72.6886 18.5905 73.1412 18.5062 73.5963 18.5188C74.0636 18.5148 74.5256 18.6195 74.9462 18.8248C75.3482 19.0131 75.7016 19.2924 75.9789 19.6409H76.0532L76.2017 18.6684H77.15V26.1491C77.1681 26.5716 77.0975 26.9932 76.9428 27.3864C76.7881 27.7795 76.5528 28.1354 76.2523 28.4306C75.5821 29.0306 74.704 29.3397 73.8089 29.2909C72.9508 29.3335 72.1058 29.0657 71.4262 28.5361C71.1494 28.3245 70.9206 28.0558 70.7553 27.7479C70.59 27.4401 70.492 27.1001 70.4678 26.7509ZM71.9595 24.0817C72.1798 24.3115 72.4438 24.4943 72.7357 24.6191C73.0277 24.744 73.3416 24.8083 73.6587 24.8083C73.9758 24.8083 74.2897 24.744 74.5817 24.6191C74.8736 24.4943 75.1376 24.3115 75.3579 24.0817C75.7944 23.5491 76.0331 22.8801 76.0331 22.1894C76.0331 21.4988 75.7944 20.8297 75.3579 20.2972C75.1376 20.0673 74.8736 19.8845 74.5817 19.7597C74.2897 19.6349 73.9758 19.5705 73.6587 19.5705C73.3416 19.5705 73.0277 19.6349 72.7357 19.7597C72.4438 19.8845 72.1798 20.0673 71.9595 20.2972C71.5212 20.8289 71.2812 21.4983 71.2812 22.1894C71.2812 22.8806 71.5212 23.55 71.9595 24.0817Z" fill="#101828"/>
<path id="Vector_12" d="M79.2278 26.1529V18.5261H80.1896L80.3381 19.2741H80.4124C80.5569 19.048 80.7465 18.8546 80.9692 18.7063C81.2321 18.5685 81.5274 18.5062 81.8231 18.5261H83.0852V19.5734H81.9715C81.7509 19.5478 81.5274 19.5729 81.3177 19.6465C81.108 19.7202 80.9175 19.8407 80.7604 19.9989C80.6034 20.1571 80.4839 20.349 80.4107 20.5603C80.3376 20.7716 80.3128 20.9968 80.3381 21.2191V26.1529H79.2278Z" fill="#101828"/>
<path id="Vector_13" d="M84.2756 17.0603V15.7002H85.5378V17.0603H84.2756ZM84.3499 26.1595V18.5326H85.4636V26.1527L84.3499 26.1595Z" fill="#101828"/>
<path id="Vector_14" d="M92.8862 23.6092H94C93.8524 24.3688 93.4452 25.0522 92.8491 25.5406C92.154 26.0482 91.3009 26.2874 90.4454 26.2143C89.5899 26.1413 88.7889 25.761 88.1884 25.1427C87.53 24.3592 87.1687 23.3658 87.1687 22.3392C87.1687 21.3126 87.53 20.3192 88.1884 19.5357C88.788 18.9188 89.5872 18.5388 90.441 18.4645C91.2948 18.3903 92.1467 18.6268 92.8424 19.131C93.4334 19.5959 93.8433 20.2556 94 20.9944H92.8862C92.758 20.545 92.4804 20.1537 92.0999 19.8859C91.6945 19.6185 91.2174 19.4832 90.7331 19.4983C90.4023 19.4926 90.0743 19.5607 89.7727 19.6976C89.471 19.8346 89.2032 20.0371 88.9883 20.2905C88.5356 20.8728 88.2896 21.5911 88.2896 22.3307C88.2896 23.0703 88.5356 23.7886 88.9883 24.3709C89.2032 24.6244 89.471 24.8268 89.7727 24.9638C90.0743 25.1008 90.4023 25.1688 90.7331 25.1631C91.8715 25.1745 92.5893 24.6565 92.8862 23.6092Z" fill="#101828"/>
</g>
</g>
</svg>
