<svg width="110" height="86" viewBox="0 0 110 86" fill="none" xmlns="http://www.w3.org/2000/svg">
<g id="tradr_logo (1) 3 1" clip-path="url(#clip0_2957_1968)">
<g id="Group">
<g id="Group_2">
<g id="Group_3">
<g id="tradr">
<g id="Group_4">
<g id="Group_5">
<g id="tradr1">
<g id="Group_892">
<g id="Path_5145">
<path id="Vector" d="M37.2052 60.6791C37.204 59.9499 36.9161 59.2498 36.4053 58.7344C35.8945 58.2191 35.2006 57.9286 34.4777 57.9274C32.125 57.8752 29.9119 59.0808 28.6638 61.0948V58.5145H21.4501V84.7199H28.659V68.4796C29.171 66.1946 31.2829 64.6146 33.5983 64.7848H33.7814C34.6813 64.7981 35.5487 64.4481 36.1908 63.8124C36.8329 63.1743 37.1956 62.3029 37.1956 61.3938C37.2052 61.1495 37.2052 60.91 37.2052 60.6791Z" fill="#3F3F3F"/>
</g>
<g id="Path_5146">
<path id="Vector_2" d="M109.932 60.6791C109.931 59.9499 109.643 59.2498 109.132 58.7344C108.621 58.2191 107.927 57.9286 107.205 57.9274C104.852 57.8752 102.639 59.0808 101.391 61.0948V58.5145H94.1769V84.7199H101.386V68.4796C101.898 66.1946 104.01 64.6146 106.325 64.7848H106.508C107.408 64.7981 108.276 64.4481 108.918 63.8124C109.56 63.1743 109.922 62.3029 109.922 61.3938C109.932 61.1495 109.932 60.91 109.932 60.6791Z" fill="#3F3F3F"/>
</g>
<g id="Path_5147">
<path id="Vector_3" d="M60.1139 84.7207V68.01C60.1139 61.7349 56.1022 57.9221 49.1848 57.9221C46.2393 57.8431 43.3709 58.8957 41.1639 60.8646C40.2459 61.7482 39.9495 63.1131 40.4193 64.3018C40.8916 65.4917 42.0409 66.2756 43.3106 66.2756C43.3191 66.2975 43.342 66.3109 43.3661 66.3084C44.2949 66.3097 45.1767 65.8964 45.7755 65.1805C46.5694 64.2544 47.7512 63.7585 48.9619 63.8436C49.1053 63.8278 49.2486 63.8193 49.3932 63.8193C51.4846 63.829 53.2025 65.5622 53.2121 67.6721C53.2121 67.7451 53.2097 67.818 53.2061 67.8909V69.8271C51.3882 68.811 49.3402 68.2835 47.2621 68.2981C41.6228 68.2981 37.2052 71.7012 37.2052 76.6844C37.2052 82.1392 41.6229 85.1923 46.8549 85.1923C49.1137 85.2822 51.34 84.6222 53.1916 83.3157V84.7207H60.1139ZM53.1928 77.5704C52.5531 78.9779 50.5762 79.8591 48.4836 79.8591C46.2164 79.8591 43.8913 78.9208 43.8913 76.6334C43.8913 74.4043 46.2164 73.4077 48.4836 73.4077C50.5762 73.4077 52.5531 74.2876 53.1928 75.6951V77.5704Z" fill="#3F3F3F"/>
</g>
<g id="Path_5148">
<path id="Vector_4" d="M11.1029 51.4424V58.5088H14.0568C14.7845 58.5088 15.482 58.8005 15.9964 59.3195C16.5108 59.8384 16.8 60.5422 16.8 61.2763V61.6056C16.8 62.3398 16.5108 63.0435 15.9964 63.5625C15.482 64.0814 14.7845 64.3731 14.0568 64.3731H11.1029V75.8648C11.0872 75.9803 11.08 76.0958 11.08 76.2124C11.0836 77.6734 12.2751 78.8754 13.7231 78.8791C13.8388 78.8791 13.9532 78.8718 14.0677 78.856C15.1736 78.8511 16.2578 78.5472 17.2071 77.976V84.4335C15.735 85.0448 14.1472 85.3256 12.557 85.2539C7.26713 85.2539 3.95299 82.6152 3.95299 76.8056V64.3719H2.13629C1.57008 64.3719 1.02676 64.1459 0.625592 63.7436C0.22563 63.34 0.000350212 62.7919 -0.000854492 62.2206V61.9131C-0.000854492 61.2775 0.276228 60.6734 0.756905 60.2638L2.81454 58.51H3.95178V57.5377L11.1029 51.4424Z" fill="#3F3F3F"/>
</g>
<g id="Path_5149">
<path id="Vector_5" fill-rule="evenodd" clip-rule="evenodd" d="M89.934 84.7264H82.6648V82.5569C80.9625 84.3351 78.6097 85.3317 76.1594 85.3135C68.6023 85.3135 64.3533 79.155 64.3533 71.6474C64.3533 64.1398 68.5987 57.923 76.1594 57.923C78.6097 57.9048 80.9625 58.9014 82.6648 60.6796V53.1683L89.9316 46.9697L89.934 84.7264ZM82.6648 75.9305C81.7649 77.8156 79.8542 79.0079 77.7809 78.98C73.8861 78.98 71.561 75.8126 71.561 71.6486C71.561 67.4263 73.8861 64.2589 77.7809 64.2589C79.8434 64.2711 81.7335 65.45 82.6648 67.3072V75.9305Z" fill="#3F3F3F"/>
</g>
</g>
<g id="Group_891">
<g id="Path_5150">
<path id="Vector_6" fill-rule="evenodd" clip-rule="evenodd" d="M67.7626 47.418C61.0223 51.2222 52.8845 51.6075 45.8201 48.4596C38.4943 45.1986 32.207 38.0362 30.1144 26.096C45.837 15.8015 67.5915 27.0112 67.7626 47.418ZM61.815 43.9346C56.9407 45.5061 51.6473 45.1014 47.0634 42.8079C41.7663 40.2823 38.0847 35.2128 37.2932 29.357C47.2405 25.1347 60.1609 33.0263 61.8186 43.9346H61.815Z" fill="#00B933"/>
</g>
<g id="Path_5151">
<path id="Vector_7" fill-rule="evenodd" clip-rule="evenodd" d="M80.6939 26.0973C74.7824 22.0293 67.3904 21.4107 60.0453 23.6847C61.5524 25.0496 62.9269 26.558 64.1485 28.189C67.441 27.5096 70.8599 27.8293 73.9729 29.1067C73.8199 32.2753 72.4056 35.2506 70.0516 37.3532C70.8021 39.8084 71.3105 42.3328 71.5683 44.8888C77.4448 40.049 80.059 33.5697 80.6939 26.0973Z" fill="#00B933"/>
</g>
<g id="Path_5152">
<path id="Vector_8" fill-rule="evenodd" clip-rule="evenodd" d="M30.63 21.0738C32.7852 9.20162 43.1216 0.483489 55.0855 0.448242C66.9988 0.483489 77.3051 9.12627 79.5169 20.9364C77.3942 20.3287 75.3282 19.8012 73.344 19.3722C70.7153 11.4744 63.3401 6.1157 55.0831 6.10112C46.9068 6.11692 39.5882 11.3736 36.8981 19.1631C34.7621 19.6323 32.666 20.2704 30.63 21.0738Z" fill="#00B933"/>
</g>
<g id="Path_5153">
<path id="Vector_9" fill-rule="evenodd" clip-rule="evenodd" d="M53.1278 24.1983C57.2383 24.185 60.6428 20.8329 60.7536 16.6871C56.6793 16.0842 53.2772 19.3343 53.1278 24.1983Z" fill="#FFD000"/>
</g>
<g id="Path_5154">
<path id="Vector_10" fill-rule="evenodd" clip-rule="evenodd" d="M55.5951 16.4241C59.0502 16.4131 61.9114 13.5958 62.0041 10.1112C58.5791 9.60439 55.7156 12.3354 55.5951 16.4241Z" fill="#FFD000"/>
</g>
<g id="Path_5155">
<path id="Vector_11" fill-rule="evenodd" clip-rule="evenodd" d="M56.7384 10.1315C59.084 10.1242 61.0259 8.21238 61.091 5.84719C58.7659 5.5008 56.8251 7.35552 56.7384 10.1315Z" fill="#FFD000"/>
</g>
<g id="Path_5156">
<path id="Vector_12" fill-rule="evenodd" clip-rule="evenodd" d="M51.2991 5.0957C54.1688 6.24305 55.6385 9.52709 54.5928 12.4574C51.5774 11.7586 50.0812 8.54261 51.2991 5.0957Z" fill="#FFD000"/>
</g>
<g id="Path_5157">
<path id="Vector_13" fill-rule="evenodd" clip-rule="evenodd" d="M48.7391 9.74609C52.6303 11.303 54.6193 15.7575 53.1965 19.7295C49.1174 18.7742 47.0887 14.4181 48.7391 9.74609Z" fill="#FFD000"/>
</g>
</g>
</g>
</g>
</g>
</g>
</g>
</g>
</g>
</g>
<defs>
<clipPath id="clip0_2957_1968">
<rect width="110" height="85" fill="white" transform="translate(0 0.321289)"/>
</clipPath>
</defs>
</svg>
